<svg id="Camada_1" data-name="Camada 1" xmlns="http://www.w3.org/2000/svg" viewBox="0 0 512 512"><defs><style>.cls-1{fill:#fff;}</style></defs><title>download-solid</title><path class="cls-1" d="M288,32a32,32,0,0,0-64,0V274.7l-73.4-73.4a32,32,0,1,0-45.3,45.3l128,128a32,32,0,0,0,45.3,0l128-128a32,32,0,1,0-45.3-45.3L288,274.7ZM64,352A64.06,64.06,0,0,0,0,416v32a64.06,64.06,0,0,0,64,64H448a64.06,64.06,0,0,0,64-64V416a64.06,64.06,0,0,0-64-64H346.5l-45.3,45.3a64,64,0,0,1-90.5,0L165.5,352Zm368,56a24,24,0,1,1-24,24A24,24,0,0,1,432,408Z"/></svg>